<svg width="190" height="43" viewBox="0 0 190 43" fill="none" xmlns="http://www.w3.org/2000/svg">
<path d="M-2.27243e-06 32.535V1.035H4.77V19.62L13.05 10.215H19.08L9.225 20.835L19.8 32.535H13.68L4.77 22.005V32.535H-2.27243e-06ZM19.1102 42.435V38.34H20.5952C21.6152 38.34 22.3502 38.13 22.8002 37.71C23.2802 37.29 23.5202 36.57 23.5202 35.55V10.215H28.2902V35.595C28.2902 37.245 28.0052 38.565 27.4352 39.555C26.8652 40.575 26.0552 41.31 25.0052 41.76C23.9852 42.21 22.7552 42.435 21.3152 42.435H19.1102ZM25.9502 6.3C25.0802 6.3 24.3302 6 23.7002 5.4C23.1002 4.77 22.8002 4.005 22.8002 3.105C22.8002 2.235 23.1002 1.5 23.7002 0.900003C24.3302 0.300002 25.0802 1.43051e-06 25.9502 1.43051e-06C26.8502 1.43051e-06 27.6002 0.300002 28.2002 0.900003C28.8002 1.5 29.1002 2.235 29.1002 3.105C29.1002 4.005 28.8002 4.77 28.2002 5.4C27.6002 6 26.8502 6.3 25.9502 6.3ZM44.0561 33.075C41.8661 33.075 39.9311 32.58 38.2511 31.59C36.5711 30.6 35.2511 29.22 34.2911 27.45C33.3611 25.68 32.8961 23.655 32.8961 21.375C32.8961 19.005 33.3611 16.95 34.2911 15.21C35.2211 13.47 36.5261 12.12 38.2061 11.16C39.9161 10.17 41.8811 9.675 44.1011 9.675C46.2611 9.675 48.1511 10.155 49.7711 11.115C51.3911 12.045 52.6511 13.32 53.5511 14.94C54.4811 16.56 54.9461 18.405 54.9461 20.475C54.9461 20.895 54.9311 21.255 54.9011 21.555C54.9011 21.855 54.8711 22.215 54.8111 22.635H37.6661C37.7561 23.895 38.0711 25.02 38.6111 26.01C39.1511 26.97 39.8861 27.735 40.8161 28.305C41.7461 28.845 42.8111 29.115 44.0111 29.115C45.3011 29.115 46.3961 28.83 47.2961 28.26C48.2261 27.66 48.9161 26.82 49.3661 25.74H54.3161C53.9261 27.09 53.2661 28.32 52.3361 29.43C51.4361 30.54 50.2961 31.425 48.9161 32.085C47.5361 32.745 45.9161 33.075 44.0561 33.075ZM37.7111 19.26H50.0861C50.0261 17.52 49.4111 16.155 48.2411 15.165C47.0711 14.145 45.6461 13.635 43.9661 13.635C42.4661 13.635 41.1011 14.1 39.8711 15.03C38.6411 15.96 37.9211 17.37 37.7111 19.26ZM60.2139 42.435L65.1639 31.545L55.8489 10.215H61.1139L67.6839 26.505L74.5239 10.215H79.5189L65.2539 42.435H60.2139Z" fill="url(#paint0_linear_43_5)"/>
<path d="M83.0693 32.535V1.035H94.0943C96.3143 1.035 98.2343 1.38 99.8543 2.07C101.474 2.76 102.734 3.795 103.634 5.175C104.564 6.525 105.029 8.205 105.029 10.215C105.029 12.225 104.564 13.92 103.634 15.3C102.704 16.68 101.414 17.715 99.7643 18.405C98.1443 19.065 96.2543 19.395 94.0943 19.395H87.8393V32.535H83.0693ZM87.8393 15.345H94.0043C96.2543 15.345 97.8443 14.895 98.7743 13.995C99.7043 13.065 100.169 11.805 100.169 10.215C100.169 8.595 99.7043 7.335 98.7743 6.435C97.8443 5.505 96.2543 5.04 94.0043 5.04H87.8393V15.345ZM109.028 32.535V1.035H113.798V32.535H109.028ZM129.178 33.075C126.988 33.075 125.053 32.58 123.373 31.59C121.693 30.6 120.373 29.22 119.413 27.45C118.483 25.68 118.018 23.655 118.018 21.375C118.018 19.005 118.483 16.95 119.413 15.21C120.343 13.47 121.648 12.12 123.328 11.16C125.038 10.17 127.003 9.675 129.223 9.675C131.383 9.675 133.273 10.155 134.893 11.115C136.513 12.045 137.773 13.32 138.673 14.94C139.603 16.56 140.068 18.405 140.068 20.475C140.068 20.895 140.053 21.255 140.023 21.555C140.023 21.855 139.993 22.215 139.933 22.635H122.788C122.878 23.895 123.193 25.02 123.733 26.01C124.273 26.97 125.008 27.735 125.938 28.305C126.868 28.845 127.933 29.115 129.133 29.115C130.423 29.115 131.518 28.83 132.418 28.26C133.348 27.66 134.038 26.82 134.488 25.74H139.438C139.048 27.09 138.388 28.32 137.458 29.43C136.558 30.54 135.418 31.425 134.038 32.085C132.658 32.745 131.038 33.075 129.178 33.075ZM122.833 19.26H135.208C135.148 17.52 134.533 16.155 133.363 15.165C132.193 14.145 130.768 13.635 129.088 13.635C127.588 13.635 126.223 14.1 124.993 15.03C123.763 15.96 123.043 17.37 122.833 19.26ZM144.053 32.535V10.215H148.643L148.733 13.5C149.483 12.27 150.518 11.325 151.838 10.665C153.188 10.005 154.613 9.675 156.113 9.675C158.723 9.675 160.838 10.5 162.458 12.15C164.078 13.77 164.888 16.2 164.888 19.44V32.535H160.118V20.025C160.118 18.015 159.668 16.47 158.768 15.39C157.868 14.28 156.518 13.725 154.718 13.725C152.948 13.725 151.523 14.34 150.443 15.57C149.363 16.77 148.823 18.435 148.823 20.565V32.535H144.053ZM178.813 42.975C176.923 42.975 175.168 42.75 173.548 42.3C171.928 41.85 170.623 41.1 169.633 40.05C168.673 39.03 168.193 37.665 168.193 35.955C168.193 34.815 168.448 33.855 168.958 33.075C169.468 32.295 170.188 31.65 171.118 31.14C170.368 30.72 169.783 30.18 169.363 29.52C168.943 28.86 168.733 28.095 168.733 27.225C168.733 25.335 169.603 23.85 171.343 22.77C170.713 22.08 170.218 21.3 169.858 20.43C169.498 19.56 169.318 18.615 169.318 17.595C169.318 15.975 169.708 14.58 170.488 13.41C171.268 12.21 172.333 11.295 173.683 10.665C175.033 10.005 176.578 9.675 178.318 9.675C179.608 9.675 180.793 9.855 181.873 10.215H189.703V13.95H186.418C186.688 14.52 186.898 15.105 187.048 15.705C187.228 16.305 187.318 16.935 187.318 17.595C187.318 19.245 186.913 20.67 186.103 21.87C185.323 23.04 184.258 23.955 182.908 24.615C181.558 25.245 180.028 25.56 178.318 25.56C177.538 25.56 176.818 25.485 176.158 25.335C175.498 25.155 174.838 24.915 174.178 24.615C173.458 24.975 173.098 25.53 173.098 26.28C173.098 27.69 174.283 28.395 176.653 28.395H180.568C182.308 28.395 183.808 28.635 185.068 29.115C186.358 29.565 187.348 30.3 188.038 31.32C188.758 32.34 189.118 33.675 189.118 35.325C189.118 36.945 188.638 38.325 187.678 39.465C186.748 40.605 185.503 41.475 183.943 42.075C182.383 42.675 180.673 42.975 178.813 42.975ZM178.768 39.15C180.388 39.15 181.768 38.865 182.908 38.295C184.048 37.725 184.618 36.855 184.618 35.685C184.618 33.525 183.223 32.445 180.433 32.445H176.878C175.558 32.445 174.523 32.715 173.773 33.255C173.023 33.795 172.648 34.605 172.648 35.685C172.648 36.525 172.933 37.2 173.503 37.71C174.073 38.22 174.823 38.58 175.753 38.79C176.683 39.03 177.688 39.15 178.768 39.15ZM178.273 21.735C179.623 21.735 180.718 21.345 181.558 20.565C182.428 19.785 182.863 18.795 182.863 17.595C182.863 16.425 182.428 15.45 181.558 14.67C180.718 13.89 179.623 13.5 178.273 13.5C176.923 13.5 175.828 13.89 174.988 14.67C174.178 15.45 173.773 16.425 173.773 17.595C173.773 18.795 174.163 19.785 174.943 20.565C175.753 21.345 176.863 21.735 178.273 21.735Z" fill="black"/>
<defs>
<linearGradient id="paint0_linear_43_5" x1="-50.4512" y1="5.535" x2="238.549" y2="5.535" gradientUnits="userSpaceOnUse">
<stop offset="0.576923" stop-color="#4EB2FF"/>
<stop offset="0.740385" stop-color="#2F6B99"/>
</linearGradient>
</defs>
</svg>
